<svg width="139" height="37" viewBox="0 0 139 37" fill="none" xmlns="http://www.w3.org/2000/svg">
<g clip-path="url(#clip0_3031_659)">
<path d="M39.4075 11.7923L18.5678 0L9.60449 5.98043L30.2388 18.1098L39.4075 11.7923Z" fill="#EE8889"/>
<path d="M0 12.2628L8.46536 6.58203L29.0001 18.7739L20.8522 24.4297L0 12.2628Z" fill="#EA5F62"/>
<path d="M29.9085 19.3203L39.3075 25.0011L31.1161 30.4634L21.5801 25.0198L29.9085 19.3203Z" fill="#80C9DA"/>
<path d="M9.29984 18.9336L30.2392 31.0131L20.8526 36.9997L0.168457 25.1388L9.29984 18.9336Z" fill="#56B9CE"/>
<path d="M8.58363 18.2926L0 13.3359V23.9858L8.58363 18.2926Z" fill="#80C9DA"/>
<path d="M39.4082 13.5951V23.7518L30.7188 18.6765L39.4082 12.7148V13.5951Z" fill="#82C7D9"/>
<path d="M50.9971 28.8471V5.80555H59.6678C60.8359 5.78058 62.0039 5.85367 63.1598 6.02404C64.1674 6.17182 65.1302 6.54056 65.9795 7.10402C66.7844 7.66903 67.4281 8.43512 67.8469 9.32639C68.3141 10.2997 68.5526 11.3675 68.544 12.4477C68.5946 14.2929 67.9245 16.0849 66.6767 17.4418C65.4318 18.7985 63.1847 19.4769 59.9355 19.4769H54.0409V28.8408L50.9971 28.8471ZM54.0346 16.7613H59.9728C61.9356 16.7613 63.3299 16.3951 64.1557 15.6626C64.581 15.2675 64.9134 14.7825 65.1287 14.2426C65.344 13.7028 65.4369 13.1216 65.4006 12.5413C65.43 11.6523 65.1748 10.7773 64.6724 10.0443C64.2145 9.37696 63.535 8.89461 62.7552 8.6834C61.8183 8.52119 60.8665 8.46257 59.9168 8.5086H54.0409L54.0346 16.7613Z" fill="#EA5F62"/>
<path d="M73.667 9.06333V5.80469H76.4867V9.05709L73.667 9.06333ZM73.667 28.8524V12.1597H76.4867V28.8462L73.667 28.8524Z" fill="#EA5F62"/>
<path d="M93.25 22.7372L96.0261 23.0993C95.8185 24.8326 94.9914 26.4317 93.6981 27.6002C92.4196 28.697 90.78 29.2778 89.0982 29.2295C88.0765 29.2717 87.0577 29.0934 86.1106 28.7068C85.1635 28.3202 84.3101 27.7342 83.6082 26.9884C82.2305 25.4902 81.5416 23.3511 81.5416 20.571C81.5075 18.9482 81.8129 17.3363 82.438 15.8391C82.9791 14.5485 83.9371 13.4777 85.1581 12.7989C86.3734 12.1258 87.741 11.7775 89.1293 11.7876C90.7204 11.719 92.2861 12.2042 93.5612 13.161C94.7512 14.1474 95.5378 15.5384 95.7709 17.0689L93.0259 17.4934C92.8473 16.5225 92.3603 15.6356 91.6378 14.9651C90.9622 14.3988 90.1028 14.1011 89.2227 14.1286C88.5678 14.1072 87.9166 14.2341 87.3174 14.5C86.7182 14.7658 86.1865 15.1638 85.7619 15.6643C84.8738 16.6839 84.4298 18.3008 84.4298 20.5148C84.4298 22.7289 84.8572 24.3457 85.7121 25.3653C86.1183 25.8591 86.6319 26.2532 87.2134 26.5172C87.795 26.7812 88.429 26.9082 89.0671 26.8885C90.0897 26.9205 91.0848 26.5535 91.8432 25.8647C92.6599 25.0176 93.1573 23.9119 93.25 22.7372Z" fill="#EA5F62"/>
<path d="M100.053 28.8462V5.80469H102.873V18.9142L109.552 12.1597H113.206L106.844 18.3524L113.847 28.8462H110.367L104.865 20.3125L102.879 22.2415V28.8587L100.053 28.8462Z" fill="#EA5F62"/>
<path d="M117.643 28.8486V12.1621H120.182V14.6904C120.612 13.7871 121.232 12.9883 122 12.3494C122.53 11.9755 123.163 11.7769 123.811 11.7813C124.844 11.806 125.849 12.1218 126.712 12.6927L125.734 15.3209C125.115 14.9287 124.4 14.7129 123.668 14.6966C123.068 14.6906 122.483 14.8862 122.006 15.2522C121.501 15.6435 121.132 16.1856 120.954 16.8004C120.63 17.8707 120.471 18.9842 120.481 20.1027V28.8424L117.643 28.8486Z" fill="#EA5F62"/>
<path d="M129.955 28.8486V12.1621H132.495V14.6904C132.917 13.7895 133.528 12.9909 134.287 12.3494C134.817 11.9755 135.451 11.7769 136.099 11.7813C137.132 11.806 138.137 12.1218 138.999 12.6927L138.028 15.3146C137.409 14.9224 136.694 14.7067 135.962 14.6904C135.361 14.6843 134.776 14.8799 134.3 15.246C133.794 15.6372 133.426 16.1793 133.248 16.7941C132.924 17.8645 132.764 18.978 132.775 20.0965V28.8362L129.955 28.8486Z" fill="#EA5F62"/>
</g>
<defs>
<clipPath id="clip0_3031_659">
<rect width="139" height="37" fill="white"/>
</clipPath>
</defs>
</svg>
